<svg xmlns="http://www.w3.org/2000/svg" version="1.1" xmlns:xlink="http://www.w3.org/1999/xlink" xmlns:svgjs="http://svgjs.dev/svgjs" width="1500" height="227" viewBox="0 0 1500 227"><g transform="matrix(1,0,0,1,-0.9090909090909918,-0.8902791684344606)"><svg viewBox="0 0 396 60" data-background-color="#ffffff" preserveAspectRatio="xMidYMid meet" height="227" width="1500" xmlns="http://www.w3.org/2000/svg" xmlns:xlink="http://www.w3.org/1999/xlink"><g id="tight-bounds" transform="matrix(1,0,0,1,0.2400000000000091,0.23531607976241276)"><svg viewBox="0 0 395.52 59.529367840475174" height="59.529367840475174" width="395.52"><g><svg viewBox="0 0 395.52 59.529367840475174" height="59.529367840475174" width="395.52"><g><svg viewBox="0 0 395.52 59.529367840475174" height="59.529367840475174" width="395.52"><g id="textblocktransform"><svg viewBox="0 0 395.52 59.529367840475174" height="59.529367840475174" width="395.52" id="textblock"><g><svg viewBox="0 0 395.52 59.529367840475174" height="59.529367840475174" width="395.52"><g transform="matrix(1,0,0,1,0,0)"><svg width="395.52" viewBox="2.44 -26.39 230.33 34.64" height="59.529367840475174" data-palette-color="#50a060"><g class="wordmark-text-0" data-fill-palette-color="primary" id="text-0"><path d="M28.54-6.35L28.54 0 11.33 0Q10.01 0 8.45-0.46 6.88-0.93 5.55-1.99 4.22-3.05 3.33-4.75 2.44-6.45 2.44-8.91L2.44-8.91 2.44-17.5Q2.44-18.41 2.65-19.41 2.86-20.41 3.3-21.4 3.74-22.39 4.43-23.29 5.13-24.19 6.12-24.88 7.1-25.56 8.4-25.98 9.69-26.39 11.33-26.39L11.33-26.39 28.54-26.39 28.54-20.04 11.33-20.04Q10.08-20.04 9.44-19.41 8.79-18.77 8.79-17.46L8.79-17.46 8.79-8.91Q8.79-7.67 9.45-7.01 10.11-6.35 11.38-6.35L11.38-6.35 28.54-6.35ZM61.03-17.65L61.03-8.74Q61.03-7.42 60.57-5.9 60.1-4.37 59.07-3.06 58.03-1.76 56.36-0.88 54.69 0 52.29 0L52.29 0 40.84 0Q39.52 0 38-0.46 36.47-0.93 35.17-1.97 33.86-3 32.98-4.68 32.1-6.35 32.1-8.74L32.1-8.74Q32.1-10.06 32.57-11.6 33.03-13.13 34.07-14.44 35.1-15.75 36.78-16.63 38.45-17.5 40.84-17.5L40.84-17.5 52.29-17.5 52.29-11.45 40.84-11.45Q39.55-11.45 38.84-10.66 38.13-9.86 38.13-8.69L38.13-8.69Q38.13-7.45 38.95-6.75 39.77-6.05 40.89-6.05L40.89-6.05 52.29-6.05Q53.59-6.05 54.29-6.84 55-7.62 55-8.79L55-8.79 55-17.65Q55-18.9 54.23-19.63 53.46-20.36 52.29-20.36L52.29-20.36 38.35-20.36 38.35-26.39 52.29-26.39Q53.61-26.39 55.14-25.93 56.66-25.46 57.97-24.43 59.27-23.39 60.15-21.72 61.03-20.04 61.03-17.65L61.03-17.65ZM90.01-17.5L90.01 0 83.66 0 83.66-17.5Q83.66-18.75 83-19.4 82.34-20.04 81.05-20.04L81.05-20.04 72.8-20.04 72.8 0 66.45 0 66.45-23.24Q66.45-23.9 66.69-24.48 66.94-25.05 67.38-25.48 67.82-25.9 68.4-26.15 68.99-26.39 69.65-26.39L69.65-26.39 81.1-26.39Q82.42-26.39 83.93-25.93 85.44-25.46 86.81-24.44L86.81-24.44 86.81-26.39 95.41-26.39Q96.31-26.39 97.31-26.18 98.31-25.98 99.3-25.54 100.29-25.1 101.19-24.4 102.09-23.71 102.78-22.72 103.46-21.73 103.88-20.43 104.29-19.14 104.29-17.5L104.29-17.5 104.29 0 97.94 0 97.94-17.5Q97.94-18.75 97.32-19.4 96.7-20.04 95.41-20.04L95.41-20.04 89.69-20.04Q90.01-18.87 90.01-17.5L90.01-17.5ZM139.23-17.5L139.23-8.91Q139.23-7.28 138.81-5.97 138.4-4.66 137.71-3.67 137.03-2.69 136.13-1.99 135.22-1.29 134.23-0.85 133.24-0.42 132.24-0.21 131.24 0 130.34 0L130.34 0 118.89 0 118.89-6.35 130.34-6.35Q131.61-6.35 132.24-7.01 132.88-7.67 132.88-8.91L132.88-8.91 132.88-17.46Q132.88-18.77 132.23-19.41 131.58-20.04 130.34-20.04L130.34-20.04 118.94-20.04Q117.64-20.04 116.98-19.4 116.33-18.75 116.33-17.5L116.33-17.5 116.33 8.25 109.98 8.25 109.98-17.5Q109.98-19.14 110.39-20.43 110.81-21.73 111.5-22.72 112.2-23.71 113.1-24.4 114.01-25.1 114.99-25.54 115.98-25.98 117-26.18 118.01-26.39 118.89-26.39L118.89-26.39 130.34-26.39Q131.97-26.39 133.27-25.98 134.56-25.56 135.55-24.88 136.54-24.19 137.24-23.29 137.93-22.39 138.37-21.4 138.81-20.41 139.02-19.41 139.23-18.41 139.23-17.5L139.23-17.5ZM171.89-17.65L171.89-8.74Q171.89-7.42 171.43-5.9 170.96-4.37 169.92-3.06 168.89-1.76 167.21-0.88 165.54 0 163.15 0L163.15 0 151.7 0Q150.38 0 148.85-0.46 147.33-0.93 146.02-1.97 144.72-3 143.84-4.68 142.96-6.35 142.96-8.74L142.96-8.74Q142.96-10.06 143.42-11.6 143.89-13.13 144.92-14.44 145.96-15.75 147.63-16.63 149.31-17.5 151.7-17.5L151.7-17.5 163.15-17.5 163.15-11.45 151.7-11.45Q150.41-11.45 149.7-10.66 148.99-9.86 148.99-8.69L148.99-8.69Q148.99-7.45 149.81-6.75 150.62-6.05 151.75-6.05L151.75-6.05 163.15-6.05Q164.44-6.05 165.15-6.84 165.86-7.62 165.86-8.79L165.86-8.79 165.86-17.65Q165.86-18.9 165.09-19.63 164.32-20.36 163.15-20.36L163.15-20.36 149.21-20.36 149.21-26.39 163.15-26.39Q164.47-26.39 165.99-25.93 167.52-25.46 168.83-24.43 170.13-23.39 171.01-21.72 171.89-20.04 171.89-17.65L171.89-17.65ZM202.82-8.91L202.82-8.91Q202.82-7.28 202.4-5.97 201.99-4.66 201.31-3.67 200.62-2.69 199.72-1.99 198.82-1.29 197.83-0.85 196.84-0.42 195.82-0.21 194.81 0 193.91 0L193.91 0 176.72 0 176.72-6.35 193.86-6.35Q195.15-6.35 195.81-7.01 196.47-7.67 196.47-8.91L196.47-8.91Q196.35-11.45 193.91-11.45L193.91-11.45 184.07-11.45Q181.97-11.45 180.51-12.18 179.04-12.92 178.12-14.01 177.21-15.11 176.81-16.38 176.4-17.65 176.4-18.75L176.4-18.75Q176.4-20.87 177.16-22.33 177.92-23.78 179.06-24.68 180.21-25.59 181.55-25.99 182.9-26.39 184.07-26.39L184.07-26.39 199.67-26.39 199.67-20.04 184.12-20.04Q183.63-20.04 183.35-19.93 183.07-19.82 182.93-19.64 182.8-19.46 182.78-19.25 182.75-19.04 182.75-18.85L182.75-18.85Q182.78-18.46 182.9-18.24 183.02-18.02 183.2-17.92 183.39-17.82 183.62-17.81 183.85-17.8 184.07-17.8L184.07-17.8 193.91-17.8Q196.35-17.8 198.06-16.92 199.77-16.04 200.82-14.71 201.87-13.38 202.34-11.82 202.82-10.25 202.82-8.91ZM232.77-8.91L232.77-8.91Q232.77-7.28 232.36-5.97 231.94-4.66 231.26-3.67 230.58-2.69 229.67-1.99 228.77-1.29 227.78-0.85 226.79-0.42 225.78-0.21 224.77 0 223.86 0L223.86 0 206.67 0 206.67-6.35 223.81-6.35Q225.11-6.35 225.77-7.01 226.43-7.67 226.43-8.91L226.43-8.91Q226.3-11.45 223.86-11.45L223.86-11.45 214.02-11.45Q211.92-11.45 210.46-12.18 208.99-12.92 208.08-14.01 207.16-15.11 206.76-16.38 206.36-17.65 206.36-18.75L206.36-18.75Q206.36-20.87 207.11-22.33 207.87-23.78 209.02-24.68 210.17-25.59 211.51-25.99 212.85-26.39 214.02-26.39L214.02-26.39 229.62-26.39 229.62-20.04 214.07-20.04Q213.58-20.04 213.3-19.93 213.02-19.82 212.89-19.64 212.75-19.46 212.73-19.25 212.7-19.04 212.7-18.85L212.7-18.85Q212.73-18.46 212.85-18.24 212.97-18.02 213.16-17.92 213.34-17.82 213.57-17.81 213.8-17.8 214.02-17.8L214.02-17.8 223.86-17.8Q226.3-17.8 228.01-16.92 229.72-16.04 230.77-14.71 231.82-13.38 232.3-11.82 232.77-10.25 232.77-8.91Z" fill="#50a060" data-fill-palette-color="primary"></path></g></svg></g></svg></g></svg></g></svg></g></svg></g><defs></defs></svg><rect width="395.52" height="59.529367840475174" fill="none" stroke="none" visibility="hidden"></rect></g></svg></g></svg>