<svg id="visual" viewBox="0 0 960 540" width="960" height="540" xmlns="http://www.w3.org/2000/svg" xmlns:xlink="http://www.w3.org/1999/xlink" version="1.1"><rect x="0" y="0" width="960" height="540" fill="#fff"></rect><path d="M0 365L22.8 374.8C45.7 384.7 91.3 404.3 137 410.2C182.7 416 228.3 408 274 414.5C319.7 421 365.3 442 411.2 453.3C457 464.7 503 466.3 548.8 461.3C594.7 456.3 640.3 444.7 686 432.5C731.7 420.3 777.3 407.7 823 413C868.7 418.3 914.3 441.7 937.2 453.3L960 465L960 541L937.2 541C914.3 541 868.7 541 823 541C777.3 541 731.7 541 686 541C640.3 541 594.7 541 548.8 541C503 541 457 541 411.2 541C365.3 541 319.7 541 274 541C228.3 541 182.7 541 137 541C91.3 541 45.7 541 22.8 541L0 541Z" fill="#50a060" stroke-linecap="round" stroke-linejoin="miter"></path></svg>